<?xml version="1.0" encoding="UTF-8"?>
<svg width="32" height="32" id="Calque_2" xmlns="http://www.w3.org/2000/svg" viewBox="0 0 256 256">
    <g id="Calque_1-2">
        <g>
            <g>
                <circle fill="#041926" cx="120.58" cy="137.28" r="118.72"/>
                <g>
                    <circle fill="#FFAA33" cx="135.42" cy="118.72" r="115.72"/>
                    <path fill="#041926" d="M135.42,6c30.11,0,58.42,11.73,79.71,33.02,21.29,21.29,33.02,49.6,33.02,79.71s-11.73,58.42-33.02,79.71c-21.29,21.29-49.6,33.02-79.71,33.02s-58.42-11.73-79.71-33.02c-21.29-21.29-33.02-49.6-33.02-79.71s11.73-58.42,33.02-79.71C77,17.73,105.31,6,135.42,6M135.42,0C69.85,0,16.7,53.15,16.7,118.72s53.15,118.72,118.72,118.72,118.72-53.15,118.72-118.72S200.99,0,135.42,0h0Z"/>
                </g>
                <path fill="#041926" d="M192.96,59.33l-44.14,80.54v38.25h-26.96v-38.25L77.88,59.33h28.81l25.27,49.54v15.16h6.74v-15.16l25.44-49.54h28.81Z"/>
            </g>
        </g>
    </g>
</svg>
